<?xml version="1.0" encoding="UTF-8"?>
<svg id="Layer_2" data-name="Layer 2" xmlns="http://www.w3.org/2000/svg" xmlns:xlink="http://www.w3.org/1999/xlink" viewBox="0 0 443.56 292.27">
  <defs>
    <style>
      .cls-1 {
        fill: #d62829;
      }

      .cls-2 {
        fill: url(#linear-gradient-2);
      }

      .cls-3 {
        fill: url(#linear-gradient-3);
      }

      .cls-4 {
        fill: url(#linear-gradient);
      }
    </style>
    <linearGradient id="linear-gradient" x1="61.87" y1="205.49" x2="134.59" y2="205.49" gradientUnits="userSpaceOnUse">
      <stop offset="0" stop-color="#b38748"/>
      <stop offset="1" stop-color="#efd48d"/>
    </linearGradient>
    <linearGradient id="linear-gradient-2" x1="0" y1="146.87" x2="443.56" y2="146.87" xlink:href="#linear-gradient"/>
    <linearGradient id="linear-gradient-3" x1="162.2" y1="189.6" x2="421.32" y2="189.6" xlink:href="#linear-gradient"/>
  </defs>
  <g id="Layer_4" data-name="Layer 4">
    <g>
      <path class="cls-1" d="M8.3,292.27c-.94,0-1.89-.23-2.76-.71-2.77-1.53-3.78-5.02-2.25-7.79l35.74-64.75C82.29,140.66,125.11,65.11,173.3,2.24c1.57-2.05,4.31-2.79,6.7-1.83,2.39.97,3.84,3.41,3.54,5.97-2.94,25.51-8.17,52-13.22,77.62-7.78,39.5-15.83,80.33-15.42,117.46.03,1.22.04,2.53.05,3.91.05,7.01.13,16.61,3.88,20.92,2.07,2.39,1.82,6.01-.57,8.08-2.39,2.07-6.01,1.82-8.08-.57-6.52-7.51-6.61-19.55-6.68-28.35-.01-1.32-.02-2.57-.05-3.73,0-.03,0-.06,0-.09-.43-38.32,7.74-79.77,15.64-119.85,3.56-18.07,7.21-36.58,10.06-54.78-42.42,58.52-81.06,126.88-120.07,197.56l-35.74,64.75c-1.04,1.89-3,2.96-5.02,2.96Z"/>
      <g>
        <path class="cls-4" d="M134.51,199.85c-.07-.83-.05-1.7.03-2.61,0-.35.01-.69.02-1.03-23.15,3.27-46.21,6.77-69.14,10.27-.27,1.41-.84,2.77-1.51,4.13-.68,1.38-1.36,2.76-2.04,4.14,24.11-3.69,48.37-7.39,72.72-10.83-.17-1.3-.16-2.71-.08-4.07Z"/>
        <path class="cls-2" d="M441.28,77.69c-13.84-6.1-28.28-7.23-46.83-3.67-15.04,2.89-37.96,10.48-48.75,17.69-1.19.8-1.84,2.19-1.67,3.62.19,1.59.38,3.12.56,4.6,1.47,11.86,2.44,19.71-1.62,31.12-.58,1.29-1.2,2.72-1.86,4.24-3.37,7.8-8.81,20.42-14.64,21.87-1.88-3.29-2.77-7.37-3.65-11.33-.32-1.44-.65-2.93-1.02-4.37-.94-3.64-1.96-9.37-2.87-14.42-.58-3.28-1.14-6.37-1.64-8.81-.3-1.43-1.39-2.57-2.81-2.93-1.42-.36-2.92.13-3.86,1.26-5.09,6.1-10.35,14.44-15.45,22.51-2.8,4.44-5.66,8.97-8.48,13.1-.15-11.82.29-25.93.66-37.85.15-4.67.28-9.08.37-12.92.04-1.8-1.18-3.38-2.92-3.8-1.75-.42-3.55.43-4.33,2.05-7.25,15.03-17.85,36.99-31.42,49.51-.53-3.71-.62-8.02-.72-12.49-.19-8.54-.39-17.37-3.56-24.66-.53-1.21-1.65-2.06-2.95-2.25-1.31-.19-2.62.31-3.47,1.32-1.65,1.96-3.78,4.34-6.25,7.09-6.38,7.11-14.32,15.95-20.22,24.63-.07-7.35.04-15.07.15-22.64.18-12.72.37-25.87-.29-37.18-.11-1.82-1.48-3.31-3.29-3.56-1.81-.25-3.54.81-4.13,2.53-25.88,74.55-112.64,99.13-175.66,111.13-5.07.97-10.11,3.66-14.55,6.04-1.01.54-1.98,1.06-2.9,1.53-.39.2-.78.39-1.15.58-4.29,2.16-8.72,4.39-9.97,10.88-.15.78-.05,1.59.28,2.31,2.68,5.86,7.7,7.3,12.83,7.3,2.78,0,5.59-.42,8.08-.8,3.85-.58,7.71-1.17,11.57-1.75.09-.35.23-.71.44-1.07,1.36-2.32,2.31-4.84,3.48-7.26-5.55.85-11.1,1.69-16.63,2.52-6.67,1-10.35,1.25-12.2-1.08.69-1.72,2.12-2.51,5.54-4.23.39-.19.78-.39,1.19-.6.96-.49,1.98-1.04,3.03-1.6,3.96-2.12,8.44-4.52,12.37-5.27,45.92-8.75,81.91-20.58,110.01-36.16,29.78-16.52,51.39-37.84,64.46-63.56.01,6.3-.08,12.8-.17,19.19-.18,12.72-.37,25.87.29,37.19.11,1.81,1.47,3.3,3.27,3.56,1.8.27,3.53-.78,4.14-2.49,3.86-10.71,17-25.35,25.7-35.04.62-.69,1.22-1.36,1.8-2,.88,4.8,1,10.25,1.12,15.57.17,7.57.33,14.72,2.53,20.48.42,1.11,1.34,1.96,2.48,2.3,1.14.34,2.37.13,3.33-.57,12.73-9.21,22.66-25.26,30.55-40.41-.46,15.11-.9,32.64-.13,44.81.1,1.56,1.14,2.9,2.63,3.39,1.49.49,3.12.02,4.12-1.18,5.09-6.1,10.35-14.44,15.45-22.51,3.23-5.11,6.53-10.34,9.75-14.94.01.06.02.11.03.17.97,5.44,1.98,11.07,2.99,15,.34,1.3.64,2.66.95,4.1,1.14,5.17,2.43,11.04,6.04,15.87.63.84,1.58,1.39,2.63,1.51,12.03,1.36,19-14.76,24.09-26.54.66-1.53,1.28-2.96,1.86-4.24.04-.1.08-.19.12-.29,4.74-13.2,3.56-22.73,2.07-34.79-.09-.7-.18-1.42-.27-2.15,10.44-6.14,30.52-12.73,43.99-15.32,16.92-3.26,29.97-2.28,42.3,3.16,1.93.85,4.19-.02,5.04-1.95.85-1.93-.02-4.19-1.95-5.04Z"/>
        <path class="cls-3" d="M417.9,183.08c-83.82-8.76-170.12-1.88-255.7,9.37,0,.02,0,.04.01.07.28,2.37.48,5.01.36,7.59,85.33-11.23,171.3-18.13,254.54-9.42,2.1.22,3.98-1.3,4.2-3.4.22-2.1-1.3-3.98-3.4-4.2Z"/>
      </g>
    </g>
  </g>
</svg>